{"title":"Elysium 2013 HDCAM XVID AC3 BHRG","uid":8910831,"size":1014308570,"categoryP":"video","categoryS":"movies","magnet":"?xt=urn:btih:d69abcdfecd217515b1be12083395d1b5bafc855&amp;dn=Elysium+2013+HDCAM+XVID+AC3+BHRG&amp;tr=udp%3A%2F%2Ftracker.openbittorrent.com%3A80&amp;tr=udp%3A%2F%2Fopen.demonii.com%3A1337&amp;tr=udp%3A%2F%2Ftracker.coppersurfer.tk%3A6969&amp;tr=udp%3A%2F%2Fexodus.desync.com%3A6969","seeders":1,"leechers":0,"uploader":"scenetime55","files":5,"time":1379016477,"description":"JOIN NOW SING UP IT&quot;S OPEN\n\nSceneTime,,Com\n SceneTime,,Com\n\n                                                         \n- Latest Releases\n- Super Fast Speeds\n- Good Community\n- Competitions with prizes (yay)\n- Love for the Scene\n\n\nCredit to EVERYONE for sharing and seeding back\nespecially to SceneTime where i get all my\ndownloads.\t\n\n\n\nFormat                                   : AVI\nFormat/Info                              : Audio Video Interleave\nFile size                                : 957 MiB\nDuration                                 : 1h 40mn\nOverall bit rate                         : 1 328 Kbps\nWriting library                          : VirtualDub build 30091/release\n\nVideo\nID                                       : 0\nFormat                                   : MPEG-4 Visual\nFormat profile                           : Advanced Simple@L5\nFormat settings, BVOP                    : 2\nFormat settings, QPel                    : No\nFormat settings, GMC                     : No warppoints\nFormat settings, Matrix                  : Default (H.263)\nMuxing mode                              : Packed bitstream\nCodec ID                                 : XVID\nCodec ID/Hint                            : XviD\nDuration                                 : 1h 40mn\nBit rate                                 : 1 093 Kbps\nWidth                                    : 640 pixels\nHeight                                   : 272 pixels\nDisplay aspect ratio                     : 2.35:1\nFrame rate                               : 29.970 fps\nColor space                              : YUV\nChroma subsampling                       : 4:2:0\nBit depth                                : 8 bits\nScan type                                : Progressive\nCompression mode                         : Lossy\nBits/(Pixel*Frame)                       : 0.209\nStream size                              : 787 MiB (82%)\nWriting library                          : XviD 1.2.1 (UTC 2008-12-04)\n\nAudio\nID                                       : 1\nFormat                                   : AC-3\nFormat/Info                              : Audio Coding 3\nMode extension                           : CM (complete main)\nFormat settings, Endianness              : Big\nCodec ID                                 : 2000\nDuration                                 : 1h 40mn\nBit rate mode                            : Constant\nBit rate                                 : 224 Kbps\nChannel(s)                               : 2 channels\nChannel positions                        : Front: L R\nSampling rate                            : 48.0 KHz\nBit depth                                : 16 bits\nCompression mode                         : Lossy\nStream size                              : 161 MiB (17%)\n\n","torrent":{"xt":"urn:btih:d69abcdfecd217515b1be12083395d1b5bafc855","amp;dn":"Elysium+2013+HDCAM+XVID+AC3+BHRG","amp;tr":["udp%3A%2F%2Ftracker.openbittorrent.com%3A80","udp%3A%2F%2Fopen.demonii.com%3A1337","udp%3A%2F%2Ftracker.coppersurfer.tk%3A6969","udp%3A%2F%2Fexodus.desync.com%3A6969"],"infoHash":"d69abcdfecd217515b1be12083395d1b5bafc855","infoHashBuffer":{"type":"Buffer","data":[214,154,188,223,236,210,23,81,91,27,225,32,131,57,93,27,91,175,200,85]},"announce":[],"urlList":[]}}